<svg id="Layer_1" data-name="Layer 1" xmlns="http://www.w3.org/2000/svg" viewBox="0 0 1227.23 194.6"><defs><style>.cls-1{fill:#b20b1b;}.cls-2{fill:#fff;}</style></defs><path class="cls-1" d="M220.93,88.07c-12.87,2.93-9.46,13.37-11.74,20.47-4.32,13.4-7.46,27.17-11.41,40.7-1.46,5-4.59,8.47-10.64,8.65-1.41,0-3.26,2.74-4,4.58-1.65,4.16-2.32,8.72-4.14,12.79-3.93,8.8-9.47,11.22-18.15,6.79-13.69-7-27.41-14.14-40.19-22.62C101,146.4,82.16,132.18,62.37,118c-.46,1.48-1.44,3.35-1.58,5.27-1.31,17.27-2.36,34.56-3.74,51.82a98.65,98.65,0,0,1-2.67,15.62c-.38,1.58-3.1,4.11-3.76,3.83a50.25,50.25,0,0,1-9.92-5.71c-.84-.61-1-2.55-1-3.88-.08-9.17,0-18.34,0-28.43l7.63,2.36c.76-2.32,2-4.6,2.2-7,1.14-13.11,2.31-26.24,2.79-39.39.11-2.84-2-6.33-4.11-8.55-3.74-3.92-3-6.52,1.31-8.69,3.48-1.75,4.55-4.3,4.44-8.1C53.73,79.13,54,71.05,54,63c0-3.78-1.33-6.33-5.27-3.16C35.14,70.74,22.32,82.24,16.1,99.4c-2.08,5.74-.44,10.41,1.51,15.28,1.15,2.88,3.27,5.37,4.65,8.19a31.53,31.53,0,0,1,1.58,5.54l-1.37.91c-1.57-1-3.51-1.63-4.66-3-5.16-5.94-10.28-11.93-15-18.18-3.7-4.85-3.47-10.25-.65-15.54C12.53,73.1,27.78,57.84,45.41,44.85c4.71-3.48,8.13-6.67,6.19-13-.35-1.13.72-2.69,1.14-4.05,1.41.47,3.31.53,4.16,1.49,2.71,3.07,4.94,3.33,8.59,1,5.94-3.8,12.4-6.82,18.7-10.06,7.45-3.83,12-3,18.08,2.73,2.12,2,4.34,4.19,6.94,5.35,11.78,5.24,15.72,14.87,14,26.56-2.42,16.1-7.81,31.3-18.42,44.11-6.3,7.62-19.31,8.67-26.87,2.43a3.62,3.62,0,0,1-1.25-2.91,3.3,3.3,0,0,1,2.44-2C91.72,97.66,97,88.74,101.53,79.66c5.64-11.27,10.43-23.09,8.52-36.1-1.49-10.19-8.36-14.65-17.86-10.8S73.61,42.07,64.6,47.26c-1.56.9-2.63,3.93-2.67,6-.25,13-.36,26,0,39a12.2,12.2,0,0,0,3.72,8.07c25.3,21.48,51.54,41.72,81,57.42,6.33,3.38,13.43,5.48,20.38,7.45,2.24.64,5.34-.64,7.64-1.83.86-.45,1.41-3.72.7-4.66-9.17-12.16-11.09-26.68-13.59-41-1.41-8-2.18-16.17-3.41-25.53l-8,10.58-1.74-1c.72-2.31,1.31-4.67,2.18-6.92,2.9-7.53,5.76-15.08,8.92-22.5a8.68,8.68,0,0,1,14.21-2.86,5.75,5.75,0,0,1,1.21,5.06c-4.6,11.55-5.17,23.55-3,35.44,2.1,11.5,5.43,22.8,8.7,34,.66,2.26,3.5,3.88,5.33,5.8,1.55-1.9,3.93-3.56,4.54-5.72,4-14.33,7.78-28.75,11.44-43.18,2.18-8.58.75-16.81-1.3-25.43-1.5-6.33.48-13.61,1.67-20.34.26-1.49,3.93-3.65,5.67-3.35,3.39.57,7.92,1,8.08,6.17.11,3.35.42,6.8-.24,10C214.5,75.3,211.69,82.54,220.93,88.07Z"/><path class="cls-2" d="M328.06,52.2,342,82.06a20.9,20.9,0,0,0,3.32,5.42,7.32,7.32,0,0,0,4.05,1.73c3.54.55,5.31,2.34,5.31,5.39,0,3.58-2.16,6.17-6.49,7.74s-11.4,2.36-21.23,2.36q-16.66,0-24.7-1.4a11.3,11.3,0,0,1-5.86-2.7,6.45,6.45,0,0,1-2.18-4.9,4.83,4.83,0,0,1,1.14-3.43A10.57,10.57,0,0,1,299.6,90q3.47-1.17,3.47-4,0-4.94-6-5.82A140.58,140.58,0,0,0,279,79.33q-9.81,0-11.72,1.18a6,6,0,0,0-2.07,2.66,8.75,8.75,0,0,0-.88,3.68c0,1.09.21,1.79.63,2.11a19.58,19.58,0,0,0,4.09,1.58q4.5,1.33,4.5,5.31,0,8.78-21,8.77-11.94,0-17.54-1.62-5.18-1.55-5.17-6.78A5,5,0,0,1,231,92.68a10,10,0,0,1,4.09-2.29,15.87,15.87,0,0,0,7.26-4.75q2.47-3.06,7-13.09l10.4-22.78A178,178,0,0,0,267.49,31a42.17,42.17,0,0,0,2-12.2A38.64,38.64,0,0,1,270.3,10a11,11,0,0,1,3.13-4.83,17.43,17.43,0,0,1,13-5.16q7.44,0,14.23,5.82Q310.08,13.79,328.06,52.2Zm-51.31,9.29H291.2c2.65,0,4-.59,4-1.77q0-2.43-5.53-11.94A39.85,39.85,0,0,0,285.82,42,3.81,3.81,0,0,0,283,40.48q-2.65,0-4.42,4.94c-.2.44-.91,2.19-2.14,5.23q-3.09,7.53-3.1,9C273.35,60.88,274.49,61.49,276.75,61.49Z"/><path class="cls-2" d="M441.53,8.41V75.72a33.76,33.76,0,0,0,.48,7.37,6.37,6.37,0,0,0,2.69,3.17,13.71,13.71,0,0,1,3.58,3.25,6,6,0,0,1,.92,3.39q0,5.89-11.87,9A86.56,86.56,0,0,1,416,104.62c-1.57,0-2.59-.23-3.06-.7s-.77-1.58-.92-3.35c-.25-2.51-1.13-3.76-2.66-3.76q-1.24,0-3.9,2.21a25.9,25.9,0,0,1-16.74,6.12q-11.43,0-20.57-8.48a41.56,41.56,0,0,1-8.7-11.72A37.94,37.94,0,0,1,355,67.46a38.62,38.62,0,0,1,5.76-20,35.87,35.87,0,0,1,14.45-13.72,32.66,32.66,0,0,1,15.11-4,30.62,30.62,0,0,1,15.34,3.84,4.08,4.08,0,0,0,1.77.59c1.57,0,2.36-2.12,2.36-6.34a6.05,6.05,0,0,0-1.29-4.17,10.34,10.34,0,0,0-4.61-2.47q-4.65-1.47-4.65-5.16,0-5.38,10.69-8.41,18.89-5.23,25.29-5.23T441.53,8.41Zm-40,37.08q-4.8,0-7.6,5.09-3.75,6.78-3.76,17.84,0,10,3.62,15.12a8.1,8.1,0,0,0,7,3.68q4.8,0,7-5.56t2.17-18q0-11.36-2.58-15.11A6.92,6.92,0,0,0,401.5,45.49Z"/><path class="cls-2" d="M530.67,52.79,511.58,90q-4.43,8.63-7.52,12t-6.64,3.36a7,7,0,0,1-5.6-2.51,57.58,57.58,0,0,1-7.89-11.35L463,51.69A17,17,0,0,0,459.71,47a10.33,10.33,0,0,0-4.39-2.17q-5.6-1.62-5.6-6t6.93-6.56q6.93-2.07,21.9-2.06,12.52,0,18.47,1.8C501,33.17,503,35,503,37.53c0,1.77-.93,3.46-2.8,5.09a15.21,15.21,0,0,0-2.29,2.43,3.81,3.81,0,0,0-.51,2.06c0,1.68,1.08,4.45,3.24,8.34s4.18,5.67,6.05,5.67a3.75,3.75,0,0,0,3-1.4,53.59,53.59,0,0,0,4.28-7.22c1.52-2.85,2.28-5,2.28-6.49,0-1.18-.78-2.58-2.36-4.2q-2.5-2.66-2.5-4.94,0-3.54,4.68-5.09t15.37-1.55q15,0,15,6.49,0,3.75-5.38,5.45c-2.8.89-4.71,1.85-5.71,2.88S532.79,48.66,530.67,52.79Z"/><path class="cls-2" d="M611.63,70.12H577c-1.53,0-2.29.66-2.29,2q0,4.78,5.2,9a17.33,17.33,0,0,0,11.17,4.24A26.19,26.19,0,0,0,598.91,84,25.51,25.51,0,0,0,606,80.66a7.77,7.77,0,0,1,4-1.77q1.92,0,3.76,2.36a7.82,7.82,0,0,1,1.84,4.87q0,5.31-6.63,10.25a44,44,0,0,1-27.06,8.77q-15.49,0-26-9a36.68,36.68,0,0,1-8.4-10.69,37.37,37.37,0,0,1-4.35-17.54,35.86,35.86,0,0,1,7.52-22.27,39.61,39.61,0,0,1,16.51-12.76,41.63,41.63,0,0,1,16.3-3.17q14,0,23.81,8a31.86,31.86,0,0,1,8,9.43,24.69,24.69,0,0,1,3.46,12.1,14.13,14.13,0,0,1-2,7.85A6,6,0,0,1,611.63,70.12ZM578.89,56.33h7.45q4.73,0,4.72-4.35a9.24,9.24,0,0,0-2.29-6.49,7.7,7.7,0,0,0-6-2.51,7.61,7.61,0,0,0-6.49,3.25,10.32,10.32,0,0,0-2.21,6.12,3.86,3.86,0,0,0,1.07,3.1A5.93,5.93,0,0,0,578.89,56.33Z"/><path class="cls-2" d="M713,56.92l1,26a10.55,10.55,0,0,0,.92,4.35,37,37,0,0,0,4.54,5.39,4.63,4.63,0,0,1,1.1,3.31q0,4.88-5.82,6.79T694,104.62q-10.18,0-14.38-1.77-4.35-1.83-4.35-6a4.19,4.19,0,0,1,.44-2.17,38.76,38.76,0,0,1,2.95-3.43q3-3.11,3-20.65,0-10.17-2.36-15-1.92-3.9-7.08-3.9c-3.29,0-5.55,1.05-6.78,3.17s-1.84,5.94-1.84,11.5V81a21.38,21.38,0,0,0,.55,6,36,36,0,0,0,3.65,6.27,5.66,5.66,0,0,1,.81,3q0,4.35-6,6.41t-18.87,2.07q-20.5,0-20.5-8.48a4.75,4.75,0,0,1,.63-2.69,13.19,13.19,0,0,1,3-2.62,6.13,6.13,0,0,0,2.43-3.21,58.22,58.22,0,0,0,1-8.88q.51-8.41.51-17.62c0-3.4-.26-5.62-.77-6.68s-2-2.34-4.46-3.87c-2.12-1.32-3.17-2.95-3.17-4.86A5.73,5.73,0,0,1,624.83,41q2.58-1.89,10.62-4.76,7.06-2.51,13.64-4.24a43.34,43.34,0,0,1,9-1.73,4.86,4.86,0,0,1,3.72,1.62,5.44,5.44,0,0,1,1.52,3.84c0,.14,0,.76-.08,1.84a8.2,8.2,0,0,0-.07,1q0,3.54,3,3.54,1.77,0,3.76-2.8,6.33-9.15,18.43-9.14A26.24,26.24,0,0,1,704.24,35a18.78,18.78,0,0,1,6.48,8.15Q712.57,47.85,713,56.92Z"/><path class="cls-2" d="M768.68,49V74a11.46,11.46,0,0,0,2.17,7.23,6.75,6.75,0,0,0,5.57,2.8c1.91,0,4.45-.89,7.59-2.66a4.31,4.31,0,0,1,2.21-.66c1.18,0,2.26.71,3.25,2.14a8,8,0,0,1,1.47,4.64q0,4.57-5,8.78-10.47,8.93-25.36,8.92-11.8,0-19-6.67t-7.15-17.59V46.82a3.37,3.37,0,0,0-.41-2.1,3.37,3.37,0,0,0-2.1-.41h-7.6c-1.42,0-2.33-.23-2.72-.7s-.59-1.56-.59-3.28V37.09a3.73,3.73,0,0,1,1.69-3.25l33.77-21.23a6.61,6.61,0,0,1,3.1-.67h6a2.94,2.94,0,0,1,2.47.85,6.15,6.15,0,0,1,.63,3.36v10c0,1.48.23,2.43.7,2.88a4.6,4.6,0,0,0,3,.66H786c1.82,0,3,.33,3.54,1s.81,2.07.81,4.23v4.35c0,2.36-.34,4-1,4.91s-1.94,1.36-3.76,1.36H772.22a4,4,0,0,0-2.81.74A4,4,0,0,0,768.68,49Z"/><path class="cls-2" d="M835.18,33.92v40q0,12.83,8.48,12.83a8.17,8.17,0,0,0,4.2-1.22,6.81,6.81,0,0,0,2.88-3q1.62-3.52,1.62-15.77,0-12.09-.81-16.52a5.42,5.42,0,0,0-1-2.69,10.35,10.35,0,0,0-2.8-2q-4.22-2.22-4.21-5.61,0-4.58,7.23-6.34a112.44,112.44,0,0,1,27.06-3.39q7.44,0,7.44,7.89c0,.54,0,1.65-.07,3.32Q885,45,885,50.06V82.58c0,1.67,1.42,3.19,4.28,4.57,2.4,1.18,3.61,2.9,3.61,5.16q0,6.63-15.71,10.25a79.14,79.14,0,0,1-17.84,2.14q-3.54,0-4.83-.81a4,4,0,0,1-1.51-3.17q-.37-4.57-2.8-4.58a3.3,3.3,0,0,0-1.62.41c-.5.27-2,1.27-4.5,3a27.85,27.85,0,0,1-16,5.08q-14.16,0-20-8.18-4.95-6.85-4.94-23.08,0-6,.07-10.32V59.65q0-6.34-1.14-9.33a8.94,8.94,0,0,0-4.17-4.68,14,14,0,0,1-3.65-2.36,3.59,3.59,0,0,1-.77-2.43q0-5.61,8.48-7.45a134.72,134.72,0,0,1,28.9-3.17Q835.18,30.23,835.18,33.92Z"/><path class="cls-2" d="M931.55,30.16c2.6,0,4.19.36,4.75,1.1s1.07,3.1,1.51,7.08c.25,2.16,1,3.24,2.29,3.24,1,0,1.92-.71,2.8-2.13q5.9-9.23,15.41-9.22a14.75,14.75,0,0,1,11,4.35,16.86,16.86,0,0,1,3.39,5.49A17.64,17.64,0,0,1,974,46.52a17.5,17.5,0,0,1-1.63,7.12,17.79,17.79,0,0,1-4.2,6,16.13,16.13,0,0,1-11.57,4.5,13.61,13.61,0,0,1-6.31-1.33,32.11,32.11,0,0,1-6.67-5.38,4.28,4.28,0,0,0-2.88-1.55,2.67,2.67,0,0,0-2.69,2.32c-.42,1.55-.62,4.81-.62,9.77q0,11.13.81,15.19a6.05,6.05,0,0,0,1.43,3.06A11.13,11.13,0,0,0,943.64,88q6.63,2,6.63,6.93a7.41,7.41,0,0,1-2.13,5.27,10.58,10.58,0,0,1-5.68,3q-7.08,1.47-20.79,1.47-13,0-19.84-2.28-6-2.07-6-7.15c0-2.56,1.47-4.84,4.42-6.86a11,11,0,0,0,2.95-2.54,7.32,7.32,0,0,0,1.11-3.14q1.17-6.7,1.18-24.85a11.15,11.15,0,0,0-.74-4.75,5.35,5.35,0,0,0-3-2.32q-5.24-2.07-5.24-6,0-3.53,3.62-6.08t12.09-5.05Q923.58,30.23,931.55,30.16Z"/><path class="cls-2" d="M1044.35,70.12H1009.7c-1.52,0-2.28.66-2.28,2q0,4.78,5.19,9a17.35,17.35,0,0,0,11.17,4.24,26.3,26.3,0,0,0,7.86-1.36,25.57,25.57,0,0,0,7.11-3.36,7.8,7.8,0,0,1,4-1.77q1.92,0,3.76,2.36a7.84,7.84,0,0,1,1.85,4.87q0,5.31-6.64,10.25a43.93,43.93,0,0,1-27.06,8.77q-15.48,0-25.95-9a36.71,36.71,0,0,1-8.41-10.69,37.37,37.37,0,0,1-4.35-17.54,35.86,35.86,0,0,1,7.52-22.27A39.64,39.64,0,0,1,1000,32.88a41.54,41.54,0,0,1,16.29-3.17q14,0,23.82,8a31.83,31.83,0,0,1,8,9.43,24.71,24.71,0,0,1,3.47,12.1,14.22,14.22,0,0,1-2,7.85A6,6,0,0,1,1044.35,70.12Zm-32.73-13.79h7.44q4.73,0,4.72-4.35a9.28,9.28,0,0,0-2.28-6.49,7.73,7.73,0,0,0-6-2.51,7.59,7.59,0,0,0-6.49,3.25,10.25,10.25,0,0,0-2.21,6.12,3.86,3.86,0,0,0,1.06,3.1A6,6,0,0,0,1011.62,56.33Z"/><path class="cls-1" d="M1093.7,79.27h-16.79v-6h16.79Z"/><path class="cls-1" d="M1111.25,50.78h20.16v1.06h-1a7,7,0,0,0-3.12.48,2.69,2.69,0,0,0-1.21,1.31,14.1,14.1,0,0,0-.36,4.18V76.94q0,5.24.79,6.94a6.63,6.63,0,0,0,2.61,2.82,8.54,8.54,0,0,0,4.58,1.12,9.83,9.83,0,0,0,5.4-1.42,8.74,8.74,0,0,0,3.34-3.93q1.11-2.5,1.11-8.73V57.81a9.15,9.15,0,0,0-.55-3.75,3.18,3.18,0,0,0-1.38-1.55,8,8,0,0,0-3.66-.67V50.78h13.51v1.06h-.8a5.13,5.13,0,0,0-2.74.67,3.77,3.77,0,0,0-1.59,2,10,10,0,0,0-.37,3.32V72.64c0,4.59-.3,7.91-.91,9.94a11.06,11.06,0,0,1-4.42,5.62q-3.51,2.56-9.59,2.56a18.29,18.29,0,0,1-7.84-1.35,11.57,11.57,0,0,1-5.33-4.72,16.38,16.38,0,0,1-1.55-7.75V57.81a13.53,13.53,0,0,0-.38-4.2,2.84,2.84,0,0,0-1.3-1.31,7.9,7.9,0,0,0-3.39-.46Z"/><path class="cls-1" d="M1180.18,49.88l.32,13h-1.18a13.36,13.36,0,0,0-4.1-7.88,10.33,10.33,0,0,0-7.08-3,6.64,6.64,0,0,0-4.65,1.57,4.81,4.81,0,0,0-1.71,3.62,4.41,4.41,0,0,0,.6,2.3,9.69,9.69,0,0,0,2.68,2.68,58.64,58.64,0,0,0,6.25,3.37q6.86,3.38,9.25,6.37a10.8,10.8,0,0,1,2.36,6.86,11.06,11.06,0,0,1-3.82,8.42,13.67,13.67,0,0,1-9.69,3.53,15.69,15.69,0,0,1-3.49-.37,26.52,26.52,0,0,1-4.11-1.41,6.21,6.21,0,0,0-2.28-.58,2.81,2.81,0,0,0-1.59.58,4.1,4.1,0,0,0-1.35,1.75h-1.07V76h1.07q1.28,6.22,4.88,9.5a11.44,11.44,0,0,0,7.8,3.27,7.32,7.32,0,0,0,5.14-1.76,5.32,5.32,0,0,0,1.18-6.77,8.31,8.31,0,0,0-2.23-2.46,34,34,0,0,0-5.3-3,45.88,45.88,0,0,1-7.67-4.47,13.66,13.66,0,0,1-3.58-4.12,10.19,10.19,0,0,1-1.26-5,10.63,10.63,0,0,1,3.43-7.95,12,12,0,0,1,8.64-3.29,14.58,14.58,0,0,1,3.69.47,18.12,18.12,0,0,1,3.3,1.28,7.82,7.82,0,0,0,2.72.93,1.52,1.52,0,0,0,1.18-.46,5.2,5.2,0,0,0,.81-2.22Z"/><path class="cls-1" d="M1209.83,78.72H1196l-1.64,3.8a8.47,8.47,0,0,0-.81,3.14,2.59,2.59,0,0,0,1.33,2.42,10.91,10.91,0,0,0,3.83.69v1.07h-13V88.77A5.78,5.78,0,0,0,1189.2,87a23,23,0,0,0,3.34-5.89l14-31.17h.54l14.09,32c1.34,3,2.45,4.94,3.31,5.73a4.55,4.55,0,0,0,2.77,1v1.07h-18.9V88.77h.78a6,6,0,0,0,3.2-.63,1.54,1.54,0,0,0,.63-1.32,3.73,3.73,0,0,0-.17-1.07q-.06-.25-.87-2.16Zm-1-2.13L1203,63.14l-6,13.45Z"/></svg>